<svg xmlns="http://www.w3.org/2000/svg" viewBox="0 0 241.61 28.97"><title>Asset 1</title><g id="Layer_2" data-name="Layer 2"><g id="Mockups"><path d="M52,23.12a9.22,9.22,0,0,0,7.53-3.65l4,4.13a15.12,15.12,0,0,1-21.9,1.28,13.81,13.81,0,0,1-4.19-10.32,13.94,13.94,0,0,1,4.27-10.4A14.37,14.37,0,0,1,52.16,0,14.8,14.8,0,0,1,63.7,5.25L59.81,9.66A9.11,9.11,0,0,0,52.44,6a8.59,8.59,0,0,0-6,2.3,8,8,0,0,0-2.5,6.21,8.47,8.47,0,0,0,2.36,6.27A7.8,7.8,0,0,0,52,23.12Z"/><path d="M89.83,24.78a15.26,15.26,0,0,1-20.92,0,13.84,13.84,0,0,1-4.25-10.32A13.84,13.84,0,0,1,68.91,4.15a15.26,15.26,0,0,1,20.92,0,13.84,13.84,0,0,1,4.25,10.32A13.84,13.84,0,0,1,89.83,24.78ZM87.7,14.49a9.17,9.17,0,0,0-2.4-6.39,7.93,7.93,0,0,0-11.82,0,9.17,9.17,0,0,0-2.4,6.39,9.09,9.09,0,0,0,2.4,6.37,8,8,0,0,0,11.82,0A9.09,9.09,0,0,0,87.7,14.49Z"/><path d="M109.58,28.65V.64h6.25V23.08h11.94v5.57Z" fill="#32cd32"/><path d="M150.93.64V6.21H137V12h12.54v5.33H137v5.81h14.39v5.53H130.74V.64Z"/><path d="M168.2,23.12a9.23,9.23,0,0,0,7.53-3.65l4,4.13a15.12,15.12,0,0,1-21.9,1.28,13.81,13.81,0,0,1-4.19-10.32,13.94,13.94,0,0,1,4.27-10.4A14.37,14.37,0,0,1,168.36,0,14.8,14.8,0,0,1,179.9,5.25L176,9.66A9.11,9.11,0,0,0,168.64,6a8.59,8.59,0,0,0-6,2.3,8,8,0,0,0-2.5,6.21,8.47,8.47,0,0,0,2.36,6.27A7.8,7.8,0,0,0,168.2,23.12Z"/><path d="M194.93,6.05v22.6h-6.25V6.05h-7.93V.64h22.12V6.05Z"/><path d="M205.83.64h6.25v28h-6.25Z"/><path d="M227.7,18.47,234.84.64h6.77l-11.26,28h-5.29L213.8.64h6.77Z"/><rect width="28.65" height="28.65" fill="#32cd32"/><path d="M97.76,28.65V.64H104V23.08H116v5.57Z"/><rect x="18.89" y="18.89" width="9.76" height="9.76"/></g></g></svg>